<svg xmlns="http://www.w3.org/2000/svg" xmlns:xlink="http://www.w3.org/1999/xlink" fill="none" version="1.1" width="20" height="20" viewBox="0 0 20 20"><clipPath id="master_svg0_sa39_5860"><rect x="0" y="0" width="20" height="20" rx="0"/></clipPath><g clip-path="url(#master_svg0_sa39_5860)"><g><path d="M3.76953296875,15.546925C3.76953296875,15.892625,4.04883296875,16.171925,4.39453296875,16.171925L15.60544296875,16.171925C15.95114296875,16.171925,16.230442968749998,15.892625,16.230442968749998,15.546925L16.230442968749998,10.996095C16.230442968749998,7.554685,13.44144296875,4.765625,10.00000296875,4.765625C6.55859296875,4.765625,3.76953296875,7.554685,3.76953296875,10.996095L3.76953296875,15.546925ZM5.17578296875,10.996095C5.17578296875,8.332035000000001,7.33593296875,6.171875,10.00000296875,6.171875C12.66404296875,6.171875,14.82424296875,8.332035000000001,14.82424296875,10.996095L14.82424296875,14.765625L7.89062296875,14.765625L7.89062296875,11.425825C7.89062296875,11.318355,7.80273296875,11.230465,7.69531296875,11.230465L6.83593296875,11.230465C6.72851296875,11.230465,6.64062296875,11.318355,6.64062296875,11.425825L6.64062296875,14.765625L5.17578296875,14.765625L5.17578296875,10.996095ZM4.23633296875,6.064455L5.00976296875,5.291015C5.070312968750001,5.230465000000001,5.070312968750001,5.130855,5.00976296875,5.070315L3.68359296875,3.744145C3.6230469687499998,3.683595,3.52343796875,3.683595,3.46289096875,3.744145L2.68945316875,4.517575C2.62890626875,4.578125,2.62890626875,4.677735,2.68945316875,4.738284999999999L4.01562296875,6.064455C4.07617296875,6.125005,4.17383296875,6.125005,4.23633296875,6.064455ZM17.31444296875,4.517575L16.54104296875,3.744145C16.480442968749998,3.683595,16.380842968750002,3.683595,16.320342968749998,3.744145L14.99414296875,5.070315C14.93364296875,5.130855,14.93364296875,5.230465000000001,14.99414296875,5.291015L15.76754296875,6.064455C15.82814296875,6.125005,15.92774296875,6.125005,15.98824296875,6.064455L17.31444296875,4.738284999999999C17.37504296875,4.675784999999999,17.37504296875,4.578125,17.31444296875,4.517575ZM16.25004296875,17.421925L3.75000296875,17.421925C3.4042969687499998,17.421925,3.12499996875,17.701125,3.12499996875,18.046925L3.12499996875,18.515625C3.12499996875,18.601525,3.19531296875,18.671925,3.28124996875,18.671925L16.71874296875,18.671925C16.804642968750002,18.671925,16.87504296875,18.601525,16.87504296875,18.515625L16.87504296875,18.046925C16.87504296875,17.701125,16.595742968750002,17.421925,16.25004296875,17.421925ZM9.45312296875,3.515625L10.54687296875,3.515625C10.632812968749999,3.515625,10.70312296875,3.445315,10.70312296875,3.359375L10.70312296875,1.484375C10.70312296875,1.3984375,10.632812968749999,1.328125,10.54687296875,1.328125L9.45312296875,1.328125C9.36718296875,1.328125,9.29687296875,1.3984375,9.29687296875,1.484375L9.29687296875,3.359375C9.29687296875,3.445315,9.36718296875,3.515625,9.45312296875,3.515625Z" fill="#FAFAFA" fill-opacity="1"/></g></g></svg>